<!-- by TradingView --><svg width="18" height="18" viewBox="0 0 18 18" xmlns="http://www.w3.org/2000/svg"><path fill="#F0F3FA" d="M0 0h18v18H0z"/><path d="m12.68 5.62-.32.32a4.54 4.54 0 0 1 0 6.12l.32.32a5 5 0 0 0 0-6.77Zm-6.74.02a4.53 4.53 0 0 1 6.12 0l.32-.32a4.99 4.99 0 0 0-6.77 0l.33.32Zm-.3 6.42a4.54 4.54 0 0 1 0-6.12l-.32-.32a5 5 0 0 0 0 6.77l.32-.33Zm6.42.3a4.53 4.53 0 0 1-6.12 0l-.32.32a4.99 4.99 0 0 0 6.76 0l-.32-.32Z" fill="#83808B"/><path d="M9.78 8.22c0 .35-.31.47-.62.47h-.47v-.94h.62a.46.46 0 0 1 .47.47Zm.28 1.58c0 .39-.44.57-.75.57H8.7V9.31h.62c.28 0 .75.12.75.5Zm.67-1.72A1.2 1.2 0 0 0 9.63 7V6H9v1h-.31V6H8v1H7v.75h.47c.12 0 .28 0 .28.25v2.1s0 .27-.18.27H7.1L7 11h1v1h.69v-1H9v1h.63v-1c.81-.05 1.31-.34 1.38-1.1.06-.62-.23-.9-.7-1 .29-.14.47-.4.42-.82Z" fill="#F09242"/><path d="M9 3.47a5.53 5.53 0 1 0 0 11.05A5.53 5.53 0 0 0 9 3.47ZM9 15A6 6 0 1 1 9 3a6 6 0 0 1 0 12Z" fill="#282138"/></svg>