<!-- by TradingView --><svg xmlns="http://www.w3.org/2000/svg" width="18" height="18"><path fill="#FF0012" d="M0 0h18v18H0z"/><path d="M10.3 4.08a.82.82 0 00.03-.23c0-.47-.4-.85-.9-.85-.49 0-.89.38-.89.85 0 .26.12.48.3.64l-.97.88a.9.9 0 00-.46-.25v-.6a.63.63 0 00.47-.6c0-.34-.3-.62-.65-.62a.64.64 0 00-.66.63c0 .33.28.6.62.62v.55a.87.87 0 00-.86.86c0 .14.03.27.1.39l-1.47.67a.86.86 0 00-.22-.27l.6-1.03h.12c.36 0 .66-.27.66-.62 0-.34-.3-.62-.66-.62a.64.64 0 00-.65.62c0 .24.13.44.33.55l-.58.98a.92.92 0 00-.41-.1c-.5 0-.9.39-.9.86s.4.85.9.85c.08 0 .17-.01.25-.03l.69 1.24a.85.85 0 00-.29.46l-.5-.17a.64.64 0 00-.65-.71.64.64 0 00-.65.62c0 .35.3.63.65.63.26 0 .48-.14.59-.34l.54.18c.02.27.15.5.36.65l-.33.4a.67.67 0 00-.42-.15.64.64 0 00-.66.63c0 .34.3.62.66.62.36 0 .65-.28.65-.62a.6.6 0 00-.09-.31l.38-.47c.1.04.21.07.33.07l.24 1.5a.85.85 0 00-.54.79c0 .47.4.85.9.85.27 0 .5-.11.67-.3l1.2.5a.64.64 0 00.65.72c.35 0 .65-.28.65-.63 0-.34-.3-.62-.66-.62a.66.66 0 00-.57.33l-1.14-.47c.04-.09.08-.19.09-.3l1.53-.36c.15.24.44.4.76.4.2 0 .38-.06.53-.16l.57.46a.6.6 0 00-.03.2c0 .35.29.63.65.63.36 0 .66-.28.66-.63 0-.34-.3-.62-.66-.62-.2 0-.4.1-.51.24l-.52-.43c.06-.07.1-.15.14-.23l2.42.11c.01.33.3.6.66.6.36 0 .65-.28.65-.62 0-.35-.3-.63-.65-.63-.3 0-.55.19-.63.44l-2.4-.1a.82.82 0 00-.01-.31l.84-.45c.12.14.3.23.5.23.36 0 .66-.28.66-.63 0-.34-.3-.62-.66-.62a.64.64 0 00-.65.62c0 .08.01.15.04.22l-.81.43a.9.9 0 00-.8-.45c-.49 0-.89.38-.89.85 0 .09.02.17.04.25l-1.44.35a.84.84 0 00-.27-.5l.29-.35.16.02c.36 0 .65-.28.65-.62 0-.35-.29-.63-.65-.63a.64.64 0 00-.66.63c0 .21.12.4.3.51l-.27.32a.92.92 0 00-.57-.1l-.24-1.46c.4-.09.7-.43.7-.83 0-.48-.4-.86-.9-.86a.92.92 0 00-.41.1l-.67-1.2a.88.88 0 00.28-.26l.59.14a.64.64 0 00.65.68c.36 0 .66-.28.66-.62 0-.35-.3-.63-.66-.63-.26 0-.5.15-.6.37L5 7.68a.82.82 0 00.03-.46l1.53-.7c.16.18.4.3.67.3.5 0 .9-.39.9-.86 0-.15-.04-.3-.12-.42l1.02-.93c.09.04.18.07.28.09v.42a.63.63 0 00-.52.62c0 .34.3.62.66.62.36 0 .65-.28.65-.63a.64.64 0 00-.57-.62v-.4c.1-.01.18-.04.27-.07l1.12 1.24c-.1.13-.15.3-.15.48 0 .47.4.85.9.85.48 0 .89-.38.89-.85 0-.1-.02-.2-.05-.28l.3-.17c.11.14.29.22.49.22.36 0 .65-.28.65-.62 0-.35-.29-.63-.65-.63a.64.64 0 00-.66.63c0 .08.02.15.05.22l-.28.16a.9.9 0 00-.75-.38.92.92 0 00-.59.2L9.98 4.54c.1-.07.18-.15.24-.26l.91.18c.08.27.33.47.64.47.36 0 .65-.28.65-.63 0-.34-.3-.62-.65-.62a.64.64 0 00-.66.57l-.8-.16z" fill="#fff"/></svg>