<!-- by TradingView --><svg width="18" height="18" viewBox="0 0 18 18" xmlns="http://www.w3.org/2000/svg"><path fill="url(#a)" d="M0 0h18v18H0z"/><path d="M9 3a6 6 0 1 1 0 12A6 6 0 0 1 9 3ZM3.52 7.62a5.66 5.66 0 0 0 7.18 6.76c-.84-.5-2.47-1.63-4.07-3.23a32.26 32.26 0 0 1-3.1-3.53ZM9 3.35c-.96 0-1.87.24-2.67.67.77.5 2.34 1.7 3.94 3.41v.62a37.65 37.65 0 0 0-4.3-3.82 5.66 5.66 0 0 0-2.31 2.93c.33.49 1.09 1.47 2.34 2.8V6h1.14l3.36 3.6V6H12v6h-1.1L7.5 8.39v3.03a36.68 36.68 0 0 0 3.68 2.79 5.66 5.66 0 0 0 2.39-1.9c-.2-.33-.53-.84-1.02-1.52v-.66c.6.8 1.03 1.42 1.28 1.8A5.65 5.65 0 0 0 9 3.35Z" fill="#fff"/><defs><linearGradient id="a" x1="4" y1="1.79" x2="13.39" y2="16.15" gradientUnits="userSpaceOnUse"><stop stop-color="#55FAC9"/><stop offset=".56" stop-color="#1EA7DB"/><stop offset="1" stop-color="#1C27D4"/></linearGradient></defs></svg>