<!-- by TradingView --><svg width="18" height="18" viewBox="0 0 18 18" xmlns="http://www.w3.org/2000/svg"><path fill="url(#as2i1kjba)" d="M0 0h18v18H0z"/><path d="M9 14.1a5 5 0 1 0 0-10 5 5 0 0 0 0 10Zm1-2.58V8.03l-3.25 3.8c-.08.1-.2.16-.3.17-.24.01-.45-.2-.45-.45 0-.12.04-.22.1-.3l4.07-5.08a.47.47 0 0 1 .36-.17c.26 0 .47.22.47.49v5.03c0 .26-.2.48-.47.48-.25 0-.53-.22-.53-.48Z" fill="#fff"/><defs><linearGradient id="as2i1kjba" x1="3.35" y1="3.12" x2="21.9" y2="24.43" gradientUnits="userSpaceOnUse"><stop stop-color="#1A1E21"/><stop offset="1" stop-color="#06060A"/></linearGradient></defs></svg>