<!-- by TradingView --><svg width="18" height="18" viewBox="0 0 18 18" xmlns="http://www.w3.org/2000/svg"><path fill="#4D3DFF" d="M0 0h18v18H0z"/><path d="m10.04 4-.01.02a.02.02 0 0 0 0 .03 2.7 2.7 0 0 1 1.54 1.81c.38 1.55-.66 2.79-1.84 3.55l-.66.42c-.27.18-.52.4-.77.67-.38.42-.6.96-.58 1.53.02.6.28 1.15.75 1.5.72.54 1.66.52 2.45.21a4.8 4.8 0 0 0 2.33-2.03 5.3 5.3 0 0 0 .56-4.05h-.01l-.03.02v.02c.25 2.13-.98 3.85-2.74 4.8-.33.18-.83.35-1.16.08-.26-.22-.28-.58-.1-.86.15-.2.38-.4.56-.5l.54-.34c.24-.14.5-.34.78-.6a3.62 3.62 0 0 0 1.27-2.98A3.87 3.87 0 0 0 10.04 4ZM7.95 14l.02-.02a.02.02 0 0 0 0-.03 2.7 2.7 0 0 1-1.54-1.81c-.38-1.55.66-2.78 1.84-3.54l.66-.43c.26-.17.52-.4.77-.67.38-.42.6-.95.58-1.52a1.92 1.92 0 0 0-.75-1.5c-.72-.55-1.66-.53-2.45-.22A4.8 4.8 0 0 0 4.75 6.3a5.3 5.3 0 0 0-.56 4.05h.01l.03-.02v-.02c-.25-2.13.98-3.84 2.74-4.8.33-.17.83-.35 1.16-.07.26.21.28.57.1.85-.15.21-.38.4-.56.51l-.54.33c-.24.15-.5.35-.78.6a3.62 3.62 0 0 0-1.27 2.98A3.87 3.87 0 0 0 7.95 14Z" fill="#fff"/></svg>