<!-- by TradingView --><svg width="18" height="18" viewBox="0 0 18 18" xmlns="http://www.w3.org/2000/svg"><path fill="#F0F3FA" d="M0 0h18v18H0z"/><path d="M13.99 8.52c-1.15-6.65-9.84-5.37-9.99 0l.82.42s-.27.15-.82.52c1 6.52 9.55 5.57 10-.01-.54-.34-.84-.51-.84-.51l.83-.42ZM9.7 10.84l-.82-1.4-.82 1.4-.63-.04 1.18-2L7.56 7.1l.64-.06.76 1.28.75-1.22.6.01-.99 1.7 1.1 2.02-.71.02Z" fill="#B8B5B1"/><path d="M13.58 8.25c-1.56-5.9-8.7-4.31-9.18 0l1.22.69s-.4.24-1.22.77c1.06 5.69 8.76 4.6 9.18-.01-.77-.49-1.24-.77-1.24-.77l1.24-.68Zm-3.87 2.6-.82-1.4-.83 1.4-.63-.04 1.18-2-1.06-1.7.64-.06.75 1.27.76-1.22.6.01-.99 1.7 1.1 2.02-.7.02Z" fill="#254C82"/></svg>