<!-- by TradingView --><svg width="18" height="18" viewBox="0 0 18 18" xmlns="http://www.w3.org/2000/svg"><path fill="url(#a)" d="M0 0h18v18H0z"/><path d="M8.97 3.14V7.2L5.11 9.1l3.86-5.96Z" fill="#E7F0FF"/><path d="m5.1 9.1-.01.04 3.89 2.21V7.2L5.1 9.1Z" fill="#A5B9EE"/><path d="M8.97 3.14V7.2l3.94 1.95L9 3.1l-.02.03Z" fill="#A5B8F0"/><path d="M12.9 9.14 9 11.36h-.03V7.18l3.94 1.95Z" fill="#687FCB"/><path fill-rule="evenodd" d="m9 3 4 6.15-4 2.28-4-2.28L9 3Zm-.07.32L5.26 8.98l3.67-1.84V3.32Zm0 3.94L5.21 9.14l3.72 2.12v-4Zm.13 4v-4l3.73 1.88-3.73 2.12Zm3.68-2.27L9.06 7.14V3.32L12.74 9Z" fill="#fff"/><path d="M9 14.9 5.05 9.76 9 11.92l3.95-2.16L9 14.9Z" fill="#A8B9EF"/><path d="M9 11.92 5.05 9.76 9 14.9v-2.98Z" fill="#E8F1FF"/><path fill-rule="evenodd" d="m5 9.8.09-.08L9 11.86l3.91-2.14.09.08L9 15 5 9.8Zm3.94 2.15-3.67-2 3.67 4.77v-2.77Zm.12 2.77v-2.77l3.67-2-3.67 4.77Z" fill="#fff"/><defs><linearGradient id="a" x1="9" y1="0" x2="9" y2="18" gradientUnits="userSpaceOnUse"><stop stop-color="#465191"/><stop offset=".36" stop-color="#32498F"/><stop offset=".7" stop-color="#555E99"/><stop offset="1" stop-color="#4F5795"/></linearGradient></defs></svg>