<!-- by TradingView --><svg width="18" height="18" xmlns="http://www.w3.org/2000/svg"><path fill="#F02E4E" d="M0 0h18v18H0z"/><path fill-rule="evenodd" d="M5.29 13h5.039a2.987 2.987 0 002.583-4.488 3.25 3.25 0 00.328-1.522C13.207 5.56 12.25 4 10.382 4H7.079l-.601 3.026H4v1h2.279l-.195.977H4v1h1.886L5.289 13zm1.814-3.997l.194-.977h3.03c.512 0 .983.194 1.338.517-.289.273-.705.46-1.284.46H7.104zm5.112.387c-.467.383-1.085.613-1.834.613H6.905L6.508 12h3.82a1.987 1.987 0 001.888-2.61zm-.048-1.731a2.98 2.98 0 00-1.84-.633h-2.83L7.9 5h2.482c1.158 0 1.833.941 1.858 2.013.005.223-.02.44-.072.646z" fill="#fff"/></svg>