<!-- by TradingView --><svg width="18" height="18" viewBox="0 0 18 18" xmlns="http://www.w3.org/2000/svg"><path fill="url(#afquxv2ob)" d="M0 0h18v18H0z"/><path d="m13.6 7.01-1.03.36C12.03 6.26 10.67 5 8.97 5 6.43 5 5 7.23 5 9c0 1.32 1.14 4 3.96 4 2.12 0 3.47-1.97 3.61-2.27l1.03.23A4.99 4.99 0 1 1 8.98 4a5.05 5.05 0 0 1 4.62 3.01Z" fill="#fff"/><path d="M9.63 8.5H15v1H9.63v-1Z" fill="#fff"/><circle cx="9" cy="9" fill="#fff" r="1"/><defs><linearGradient id="afquxv2ob" x1="3.35" y1="3.12" x2="21.9" y2="24.43" gradientUnits="userSpaceOnUse"><stop stop-color="#1A1E21"/><stop offset="1" stop-color="#06060A"/></linearGradient></defs></svg>