<!-- by TradingView --><svg width="18" height="18" viewBox="0 0 18 18" xmlns="http://www.w3.org/2000/svg"><path fill="#F0F3FA" d="M0 0h18v18H0z"/><path d="M9 14A5 5 0 1 0 9 4a5 5 0 0 0 0 10Z" fill="url(#awbzv32sk)"/><path d="M9.49 7.7a.6.6 0 0 0-1.05.14l-.91 2.25-.8-1.5a.6.6 0 0 0-1.07.57l1.4 2.65a.6.6 0 0 0 .54.32h.03a.6.6 0 0 0 .53-.37l1-2.47.77 1a.6.6 0 0 0 1.04-.14l1.8-4.43a5 5 0 0 0-.96-.86l-1.56 3.85-.76-1Z" fill="#F0F3FA"/><defs><linearGradient id="awbzv32sk" x1="4.01" y1="9" x2="14" y2="9" gradientUnits="userSpaceOnUse"><stop stop-color="#E9C570"/><stop offset="1" stop-color="#F7B839"/></linearGradient></defs></svg>