<!-- by TradingView --><svg width="18" height="18" viewBox="0 0 18 18" xmlns="http://www.w3.org/2000/svg"><path fill="#F0F3FA" d="M0 0h18v18H0z"/><path d="M9 5.73c.18 0 .35.05.51.15.04.02.06.06.07.12a38.11 38.11 0 0 1 .04.24c.25 0 .5.07.76.2a2.39 2.39 0 0 1 .67.47c.33-.07.64-.22.94-.47.39-.33.6-.75.66-1.26a3 3 0 0 0-.03-.77.65.65 0 0 1-.01-.24.22.22 0 0 1 .17-.16c.08-.02.16 0 .25.04.04.03.1.07.15.14.23.25.42.52.56.82.16.33.24.66.26.98.03.6-.12 1.15-.43 1.66-.17.27-.38.52-.63.74-.16.14-.33.25-.5.32-.02 0-.02.01-.02.03 0 .04 0 .1-.02.15v.03c.06.03.1.07.09.11v.56c0 .02-.01.05-.04.06a.8.8 0 0 1-.13.07v.02c.26.57.41 1.1.44 1.59 0 .2 0 .4-.05.59-.1.5-.38.9-.84 1.24-.44.32-.9.54-1.4.66a6 6 0 0 1-2.94 0c-.5-.12-.96-.34-1.4-.66a2.03 2.03 0 0 1-.89-1.83 4.23 4.23 0 0 1 .43-1.61.8.8 0 0 1-.12-.07c-.03-.02-.04-.04-.04-.06v-.56c0-.04.03-.08.08-.12.01 0 .02 0 .01-.02a.36.36 0 0 1-.02-.16l-.01-.02a1.72 1.72 0 0 1-.51-.32 3.32 3.32 0 0 1-.63-.74A2.84 2.84 0 0 1 4 6c.02-.33.1-.65.26-.98a3.31 3.31 0 0 1 .71-.96.34.34 0 0 1 .25-.04c.08.02.14.07.17.16.01.03 0 .11-.01.24a3 3 0 0 0-.03.77c.05.51.27.93.66 1.26.3.24.61.4.94.47h.02c.2-.2.41-.36.65-.48.26-.12.51-.19.76-.2l.02-.01.02-.22c0-.06.03-.1.07-.12.16-.1.33-.15.51-.15Z" fill="#010101"/><path d="M12.06 6.71c.22-.17.4-.37.54-.6.15-.25.25-.5.28-.78a3.1 3.1 0 0 0-.03-1.07h.01c.05.02.11.07.18.15l.02.02a3 3 0 0 1 .5.79c.13.3.2.62.2.93 0 .4-.1.77-.27 1.13-.17.33-.4.63-.71.91-.23.2-.45.31-.64.3a.65.65 0 0 1-.27-.06c-.17-.08-.3-.17-.4-.24a.94.94 0 0 1-.27-.38 1.3 1.3 0 0 1-.08-.61c0-.02 0-.03.03-.04l.34-.11c.18-.07.37-.19.57-.34ZM6.8 7.14l.07.03.01.02c.02.2 0 .37-.05.55a.92.92 0 0 1-.3.44c-.15.12-.31.22-.49.29a.53.53 0 0 1-.33 0 .93.93 0 0 1-.31-.15A2.87 2.87 0 0 1 4.3 6.7a2.3 2.3 0 0 1 .23-1.66c.15-.28.32-.52.51-.7a.36.36 0 0 1 .09-.07h.01l.01.02a3.06 3.06 0 0 0-.05.91c.04.47.22.89.55 1.25.32.35.7.58 1.15.7Z" fill="#F79420"/><path d="M9 6c.11 0 .22.02.33.07l.01.02.19 1.9c0 .01 0 .02-.02.02a7.2 7.2 0 0 0-1.03-.02l.18-1.9c0-.01 0-.02.02-.02.1-.05.2-.08.32-.08Z" fill="#949496"/><path d="M6.88 8.17c.2-.28.28-.62.24-1.03 0-.02 0-.03.02-.04a2 2 0 0 1 1.2-.6h.03v.03L8.23 8c0 .02 0 .03-.03.03-.51.05-.99.16-1.44.32-.05.02-.05 0-.01-.03.05-.05.1-.1.13-.15ZM9.8 8.03c-.02 0-.03 0-.03-.03l-.14-1.47V6.5h.03c.46.05.86.25 1.2.6.02.01.02.03.02.05-.03.32.02.62.16.9.05.08.12.18.23.28v.02s0 .01 0 0a6.1 6.1 0 0 0-1.48-.32Z" fill="#5D5958"/><path d="M9 8.24c.35 0 .7.03 1.05.08a5.5 5.5 0 0 1 2.2.82v.32l-.02.02a9.11 9.11 0 0 1-.25.1 6.68 6.68 0 0 0-1.54-.4 10.35 10.35 0 0 0-2.87 0c-.56.09-1.07.22-1.54.4-.02.01-.04 0-.07 0a9.34 9.34 0 0 1-.2-.12v-.32l.01-.04a5.5 5.5 0 0 1 2.18-.78c.36-.05.7-.08 1.05-.08Z" fill="#949496"/><path d="M12.57 11.06h-.22c-.32-.02-.62.07-.9.26l-.28.19a1.55 1.55 0 0 0-.26-.64 4.73 4.73 0 0 0-.2-.3.7.7 0 0 1 .7.3s0 .01 0 0a.83.83 0 0 0-.68-.5c-.02 0-.02 0-.02-.02a.7.7 0 0 0-.12-.52.36.36 0 0 0-.13-.1h-.02l-.42.31a.12.12 0 0 0-.05.09c-.02.14 0 .27.05.4.06.14.15.23.28.26.04.01.1 0 .17-.03a6.2 6.2 0 0 1 .05-.01c.13.12.24.25.34.4.1.12.15.27.18.43a.37.37 0 0 1-.32-.08 14.1 14.1 0 0 0-.48-.4 1.97 1.97 0 0 0-2.46-.02l-.5.41a.37.37 0 0 1-.33.09c.03-.2.1-.37.23-.52l.28-.31h.03c.12.07.23.06.34-.02.09-.08.15-.19.18-.33a.92.92 0 0 0 0-.27.1.1 0 0 0-.04-.07l-.4-.32c-.03-.02-.06-.02-.08 0-.17.14-.24.34-.21.61 0 .01 0 .02-.02.02-.16.03-.3.08-.4.15a.81.81 0 0 0-.28.35c0 .01 0 .01 0 0a.7.7 0 0 1 .7-.3c.02 0 .02.01 0 .03l-.27.36c-.1.16-.16.34-.2.54-.15-.1-.28-.2-.39-.26a1.37 1.37 0 0 0-.76-.19l-.24.01a4.73 4.73 0 0 1 .43-1.26l.12.06h.06c.44-.18.9-.31 1.38-.4a9.89 9.89 0 0 1 3.18 0c.46.08.9.2 1.33.38.05.02.1.03.12.02l.11-.06h.03a5.37 5.37 0 0 1 .4 1.26Z" fill="#F3A426"/><path d="M7.61 10.17c0 .11.06.2.14.2.07 0 .13-.09.13-.2 0-.1-.06-.2-.13-.2-.08 0-.14.1-.14.2ZM10.1 10.17c0 .11.06.2.14.2.07 0 .13-.09.14-.2 0-.1-.07-.2-.14-.2-.08 0-.14.1-.14.2ZM11.04 11.58a2.5 2.5 0 0 1-.07 1.17h.01c.16-.4.23-.81.2-1.24l.27-.2c.28-.18.58-.27.9-.25h.22c.1.51.02.97-.22 1.38a2.76 2.76 0 0 1-.7.69c-.53.34-1.11.56-1.77.65-.94.13-1.8.06-2.58-.2-.3-.09-.6-.23-.9-.42-.72-.46-1.06-1.08-1-1.86l.02-.24a12.62 12.62 0 0 1 .48 0c.19.03.36.09.52.18l.4.26a2.65 2.65 0 0 0 .2 1.25v-.01a2.55 2.55 0 0 1-.07-1.16c.12.03.23 0 .33-.09l.5-.41c.31-.23.65-.37 1.03-.4.52-.05 1 .1 1.43.42l.48.4c.1.08.2.1.32.08Z" fill="#F0F3FA"/><path d="M8.93 11.57c0-.02-.01-.03-.03-.03a.57.57 0 0 1-.41-.24.22.22 0 0 1-.05-.16c.01-.05.04-.1.1-.12a.6.6 0 0 1 .21-.07c.25-.03.46-.01.62.04.1.03.14.09.14.17a.3.3 0 0 1-.1.2.6.6 0 0 1-.33.18c-.01 0-.02 0-.02.02l.01.17c.02.06.05.11.1.15.12.1.25.12.4.06.1-.03.16-.1.18-.2l.02-.13c0-.04.03-.06.07-.05.05 0 .06.03.06.08 0 .17-.06.3-.16.37a.54.54 0 0 1-.38.1.56.56 0 0 1-.35-.2h-.02c-.13.13-.26.2-.39.2a.5.5 0 0 1-.36-.12c-.1-.08-.14-.2-.14-.37 0-.04.02-.06.06-.06.05 0 .07.02.07.07 0 .16.06.26.2.31a.4.4 0 0 0 .41-.07.2.2 0 0 0 .07-.11.65.65 0 0 0 .02-.19Z" fill="#010101"/><path d="M9.2 11.06c0 .04-.02.06-.05.08a.25.25 0 0 1-.14.04h-.07a.25.25 0 0 1-.14-.03c-.03-.03-.05-.05-.05-.08v-.01h.45Z" fill="#F0F3FA"/></svg>