<!-- by TradingView --><svg width="18" height="18" viewBox="0 0 18 18" xmlns="http://www.w3.org/2000/svg"><path fill="#D62D79" d="M0 0h18v18H0z"/><path d="M4.98 12.3c-.12.34.14.7.5.7.23 0 .44-.14.5-.36l.9-2.64h4.23l.9 2.64a.53.53 0 1 0 1-.35l-.8-2.29h.73c.31 0 .56-.22.56-.5s-.25-.5-.56-.5H5.06c-.31 0-.56.22-.56.5s.25.5.56.5h.73L5 12.3ZM11.15 7h1.8c.3 0 .55.22.55.5s-.25.5-.56.5H5.06c-.31 0-.56-.22-.56-.5s.25-.5.56-.5h1.8l.7-1.98a1.53 1.53 0 0 1 2.89 0l.7 1.98Zm-1.06 0-.53-1.56a.59.59 0 0 0-1.12 0L7.91 7h2.18Z" fill="#fff"/></svg>