<!-- by TradingView --><svg width="18" height="18" viewBox="0 0 18 18" xmlns="http://www.w3.org/2000/svg"><path fill="#F0F3FA" d="M0 0h18v18H0z"/><path d="m8.82 4.21.34 1.93-.91 1.44H4.08c.21-1.5.9-3 2.58-3.55a6.06 6.06 0 0 1 2.16.18Z" fill="url(#a)"/><path d="M9 12.84c-.2.79-.87 2.23-2.13 2.16-1.61-.1-2.45-3-2.76-4.86a8.4 8.4 0 0 1 .1-3.23c.37-.92.98-1.83 1.84-1.87 1.31-.06 2.18 1.3 2.46 1.98.78 2.3.7 4.54.5 5.82Z" fill="url(#b)"/><path d="m8.82 4.21.34 1.93 2.06 1.62L12.92 6c-.49-.32-1.08-.64-1.78-.97a11.6 11.6 0 0 0-2.32-.82Z" fill="url(#c)"/><path d="m12.92 6-1.7 1.75s-.03.58.66.59c1.73-.59 2.1-.57 2.57-.2.3.23.46.7.55 1.2v-.27c-.08-1.24-.65-2.15-2.08-3.07Z" fill="url(#d)"/><path d="M15 9.35c-.09-.5-.25-.98-.55-1.21-.48-.36-.84-.38-2.57.2l-.59.28c1.9 1.13 1.23 2.67.9 3.24l1.47-.37c.62-.22 1.34-.68 1.34-2.14Z" fill="url(#e)"/><path d="M12.18 11.86c.34-.57 1-2.1-.89-3.24H9.95s-1.8.34-1.32.7c.79.62 0 3.7 0 3.7l.34-.05.05-.18c.29-.17 1.8-.59 3.16-.93Z" fill="url(#f)"/><path d="M7.96 14.62c.58-.46.91-1.26 1.04-1.77.2-1.21.29-3.27-.37-5.43.04.86-.2 2.02-1.22 3v3.1c0 .3.14.82.55 1.1Z" fill="url(#g)"/><path d="M9.04 9.33c-.04-.52-.31-1.96-1.08-3.6-.07-.29.38-.63 2.67.28 2.87 1.14 2.9 1.95 2.47 2.4-.42.43-2.98.92-4.06.92Z" fill="url(#h)"/><ellipse cx="1.66" cy="2.7" rx="1.66" ry="2.7" transform="rotate(-9.77 55.67 -21.23) skewX(.1)" fill="url(#i)"/><defs><linearGradient id="a" x1="8.38" y1="4.93" x2="5.76" y2="7.23" gradientUnits="userSpaceOnUse"><stop stop-color="#FF1300"/><stop offset=".24" stop-color="#890000"/><stop offset="1" stop-color="#DA0000"/></linearGradient><linearGradient id="b" x1="6.57" y1="5.04" x2="6.57" y2="15" gradientUnits="userSpaceOnUse"><stop stop-color="#A50101"/><stop offset=".06" stop-color="#B40101"/><stop offset=".15" stop-color="#C80000"/><stop offset=".26" stop-color="#E80000"/><stop offset=".35" stop-color="#FF3000"/><stop offset=".4" stop-color="#FF8200"/><stop offset=".5" stop-color="#DEFF19"/><stop offset=".58" stop-color="#87FF70"/><stop offset=".65" stop-color="#49FFAD"/><stop offset=".72" stop-color="#09F0EE"/><stop offset=".87" stop-color="#0074FF"/><stop offset="1" stop-color="#0010FF"/></linearGradient><linearGradient id="c" x1="9.07" y1="5.29" x2="12.38" y2="6.59" gradientUnits="userSpaceOnUse"><stop stop-color="#FE1301"/><stop offset=".46" stop-color="#FF4300"/><stop offset="1" stop-color="#FA9F06"/></linearGradient><linearGradient id="d" x1="13.11" y1="6" x2="13.55" y2="7.87" gradientUnits="userSpaceOnUse"><stop stop-color="#FF8900"/><stop offset="1" stop-color="#ECDF14"/></linearGradient><linearGradient id="e" x1="12.36" y1="8.75" x2="13.49" y2="11.55" gradientUnits="userSpaceOnUse"><stop stop-color="#ECDF14"/><stop offset=".27" stop-color="#EDFA0B"/><stop offset=".49" stop-color="#AFFD48"/><stop offset="1" stop-color="#26FED2"/></linearGradient><linearGradient id="f" x1="10.08" y1="8.97" x2="10.56" y2="12.28" gradientUnits="userSpaceOnUse"><stop stop-color="#EBCC1A"/><stop offset=".3" stop-color="#EEFF09"/><stop offset=".63" stop-color="#6FFC88"/><stop offset="1" stop-color="#16FFE1"/></linearGradient><linearGradient id="g" x1="8.28" y1="7.42" x2="8.28" y2="14.62" gradientUnits="userSpaceOnUse"><stop stop-color="#E60101"/><stop offset=".17" stop-color="#FF5901"/><stop offset=".35" stop-color="#E2EE16"/><stop offset=".49" stop-color="#EBFF0C"/><stop offset=".67" stop-color="#80FF77"/><stop offset=".78" stop-color="#29FFCE"/><stop offset=".9" stop-color="#015FFF"/><stop offset=".97" stop-color="#0139FF"/></linearGradient><linearGradient id="h" x1="10.64" y1="5.42" x2="10.64" y2="9.33" gradientUnits="userSpaceOnUse"><stop offset=".06" stop-color="#FE1801"/><stop offset=".26" stop-color="#FF7E00"/><stop offset=".49" stop-color="#FBF100"/><stop offset=".7" stop-color="#ADFF49"/><stop offset="1" stop-color="#50FFA7"/></linearGradient><linearGradient id="i" x1="1.82" y1=".01" x2="1.2" y2="5.36" gradientUnits="userSpaceOnUse"><stop stop-color="#FF8D00"/><stop offset=".14" stop-color="#FFE600"/><stop offset=".26" stop-color="#C4FF33"/><stop offset=".43" stop-color="#6AFF8D"/><stop offset=".61" stop-color="#13FCE4"/><stop offset=".78" stop-color="#00B4FF"/><stop offset="1" stop-color="#156AEF"/></linearGradient></defs></svg>