<!-- by TradingView --><svg width="18" height="18" viewBox="0 0 18 18" xmlns="http://www.w3.org/2000/svg"><path fill="url(#azsf10auq)" d="M0 0h18v18H0z"/><path fill-rule="evenodd" d="M9.2 3.05a.37.37 0 0 0-.4 0l-4.6 2.8a.4.4 0 0 0-.2.35v5.6c0 .14.07.28.2.35l4.6 2.8c.13.07.27.07.4 0l4.6-2.8a.4.4 0 0 0 .2-.35V6.2a.4.4 0 0 0-.2-.35l-4.6-2.8ZM13 6.62 9 4.23 5 6.62v4.76l4 2.38 4-2.38V6.62Zm-1 .63L9 5.5 6 7.25v3.5l3 1.75v-.53L6.5 10.5V7.5L9 6.02l2.5 1.5.5-.27ZM9.5 9 12 7.6v3.44L9.5 12.6V9Z" fill="#FF9211"/><defs><linearGradient id="azsf10auq" x1="3.35" y1="3.12" x2="21.9" y2="24.43" gradientUnits="userSpaceOnUse"><stop stop-color="#1A1E21"/><stop offset="1" stop-color="#06060A"/></linearGradient></defs></svg>