<!-- by TradingView --><svg width="18" height="18" viewBox="0 0 18 18" xmlns="http://www.w3.org/2000/svg"><path fill="#F0F3FA" d="M0 0h18v18H0z"/><path d="m8.53 12.93-.23.92c0 .02-.01.04-.03.05-.15.18-.33.08-.6.01-.16-.04-.26-.14-.22-.31a33.66 33.66 0 0 1 .23-.95.05.05 0 0 0-.03-.02c-1.05-.4-1.74-1.3-1.64-2.45.01-.17.1-.26.25-.3l.07.01.96.25c.17.04.24.14.24.32a1.13 1.13 0 0 0 .44.9.02.02 0 0 0 .02 0l.49-1.92a.06.06 0 0 0-.03-.07c-.82-.5-1.63-1.13-1.53-2.21.13-1.41 1.25-2.1 2.58-1.91h.03l.02-.03.27-1.06c.1-.28.47-.11.7-.05.14.04.18.18.13.34a187.5 187.5 0 0 0-.25 1.03l.03.03a2.2 2.2 0 0 1 1.5 2.1c0 .22-.1.44-.34.38-.45-.1-.79-.2-1.03-.26a.24.24 0 0 1-.18-.24.97.97 0 0 0-.29-.68.02.02 0 0 0-.03.01L9.64 8.5a.05.05 0 0 0 .02.06c.75.45 1.67 1.15 1.67 2.12-.01 1.57-1.26 2.45-2.74 2.22a.05.05 0 0 0-.06.04Zm.35-5 .36-1.42h-.01a.45.45 0 0 0-.22 0 .57.57 0 0 0-.21.1.76.76 0 0 0-.18.2.9.9 0 0 0-.1.26v.02a.84.84 0 0 0 .02.53.5.5 0 0 0 .33.3h.01Zm.38 2.06-.4 1.6a.04.04 0 0 0 0 .05.04.04 0 0 0 .04.01c.98-.11 1.09-1.12.41-1.67a.03.03 0 0 0-.05.01Z" fill="#1D1D1F"/><path d="M12.3 14a.7.7 0 0 0 .7-.7.7.7 0 0 0-.7-.69.7.7 0 0 0-.7.7c0 .38.31.69.7.69Z" fill="#F96D30"/></svg>