<!-- by TradingView --><svg width="18" height="18" viewBox="0 0 18 18" xmlns="http://www.w3.org/2000/svg"><path fill="#F26829" d="M0 0h18v18H0z"/><path fill-rule="evenodd" d="M5.76 10.98a3.17 3.17 0 0 1-.5-1.35H6.5V8.37H4.05c-.02 0-.03 0-.03.02-.02.26-.02.5-.02.72A5 5 0 0 0 14 9l-.01-.3-.01-.1a5.03 5.03 0 0 0-5.74-4.53 4.74 4.74 0 0 0-3.79 2.93h1.31a3.62 3.62 0 0 1 2.85-1.77 3.87 3.87 0 0 1 2.62.67v.01L9 8.14a.02.02 0 0 1-.02 0h-.01l-.94-.94h-.01l-.85.85v.02l.94.93v.04l-.94.93v.02l.82.82.01.01a.02.02 0 0 0 .02 0l.94-.94a.02.02 0 0 1 .02 0l2.18 2.17a.03.03 0 0 1 0 .04 4 4 0 0 1-2.34.72 3.68 3.68 0 0 1-2.55-1.13c-.18-.2-.35-.43-.51-.69Zm6.33.23a3.7 3.7 0 0 0-.03-4.42l-2.2 2.2a.02.02 0 0 0 0 .03l2.2 2.2h.02Z" fill="#fff"/></svg>