<!-- by TradingView --><svg width="18" height="18" viewBox="0 0 18 18" xmlns="http://www.w3.org/2000/svg"><path fill="#EB1C24" d="M0 0h18v18H0z"/><path d="M8.6 6.3a.5.5 0 0 0 .2.01c.02 0 .03 0 .02-.02-.15-.2-.27-.43-.35-.69a5.79 5.79 0 0 1 .03-.75c.05.32.27.59.67.81a25.35 25.35 0 0 0 .77.45 8.07 8.07 0 0 0 .1.03c.2-.5.43-.98.7-1.42a4.36 4.36 0 0 1 .47-.63.3.3 0 0 1 .15-.08.3.3 0 0 1 .33.14c.2.3.37.63.52.98.21.53.4 1.12.54 1.76a17.22 17.22 0 0 1 .36 2.13 14.24 14.24 0 0 0 .07.28c.08.47.04.93-.13 1.38a1.71 1.71 0 0 0-.57.02c-.07.01-.1.06-.1.13.02.08.07.1.14.1.15-.02.29-.03.42-.02l-.22.39c-.13-.05-.27-.1-.43-.13-.08-.01-.12.02-.14.09-.02.07.01.12.08.14l.33.1c-.33.38-.72.7-1.17.93a5.45 5.45 0 0 1-4.32.21 4.14 4.14 0 0 1-1.64-1.14l.34-.1c.06-.02.1-.06.1-.13-.03-.08-.08-.11-.15-.1-.16.03-.31.07-.44.13l-.23-.39c.14 0 .28 0 .43.02.06 0 .1-.02.13-.07l.01-.03c0-.08-.03-.12-.1-.13a1.66 1.66 0 0 0-.57-.02h-.01v-.01a2.55 2.55 0 0 1-.07-1.6l.06-.26c.08-.77.22-1.53.41-2.3.12-.48.27-.94.45-1.38.14-.35.3-.66.48-.93.07-.1.13-.16.18-.18a.32.32 0 0 1 .22 0c.06.02.12.06.18.13a7.9 7.9 0 0 1 .8 1.28c.02.05.04.05.03 0v-.24a7.36 7.36 0 0 0 .4.75c.13.19.3.3.53.36Z" fill="#fff"/><path d="m7.64 6.4.03.23c-.35.16-.69.33-1.01.52a49.9 49.9 0 0 0-1.07.64v-.02a12.05 12.05 0 0 1 .53-2.33c.1-.26.21-.5.35-.7.04-.06.08-.1.14-.11.05-.02.1 0 .16.02l.1.12c.07.09.14.22.24.4.15.3.32.7.53 1.22ZM12.5 7.8c-.37-.27-.75-.5-1.13-.73a5.54 5.54 0 0 0-.97-.46c-.02-.03-.02-.07 0-.11a12.45 12.45 0 0 1 .83-1.75.3.3 0 0 1 .14-.12.2.2 0 0 1 .18.02 3.7 3.7 0 0 1 .38.67c.1.25.19.5.26.76a12.11 12.11 0 0 1 .3 1.71Z" fill="#F6BAD4"/><path d="m7.67 6.63-.03-.24c0-.27.01-.52.03-.75.01-.16.03-.16.05 0 .04.45.23.89.55 1.31a1.83 1.83 0 0 0 .78.62v.01a44.95 44.95 0 0 1-.69.07 1 1 0 0 1-.34-.22c-.17-.2-.28-.42-.32-.67l-.03-.13ZM8.6 6.3c-.1-.23-.14-.46-.13-.7.08.26.2.48.35.7l-.01.01a.5.5 0 0 1-.2 0Z" fill="#D6E9F8"/><path d="M6.22 9c-.18.29-.2.55-.03.81.1.14.22.24.39.3s.33.06.5 0a.75.75 0 0 0 .4-.3c.1-.13.13-.3.11-.48l.36.08.02.02a.4.4 0 0 1 0 .1c-.07.38-.26.65-.58.83-.2.12-.43.17-.67.15-.23-.01-.45-.1-.63-.23-.3-.23-.45-.52-.46-.9 0-.13.04-.29.1-.46.01-.02.03-.03.05-.02l.44.1ZM10.32 9.32c-.01.28.07.5.26.65.12.1.26.16.41.18.2.02.37-.02.53-.13a.7.7 0 0 0 .3-.44.7.7 0 0 0-.12-.57 8.36 8.36 0 0 0 .44-.11c.02 0 .03 0 .04.02a1.16 1.16 0 0 1 .06.77c-.09.3-.26.52-.53.67-.26.14-.54.19-.84.13a1.14 1.14 0 0 1-.92-1.06l.01-.02.36-.09Z" fill="#A9DFF7"/><path d="m6.22 9 1.37.33a.74.74 0 0 1-.11.49.75.75 0 0 1-.4.3.74.74 0 0 1-.5-.01.73.73 0 0 1-.39-.3c-.16-.26-.15-.52.03-.8ZM11.7 9.01a.7.7 0 0 1 .12.57.7.7 0 0 1-.3.44.75.75 0 0 1-.53.13.77.77 0 0 1-.41-.18c-.19-.16-.27-.37-.26-.65l1.38-.3Z" fill="#231F20"/><path d="M5.05 10.91c-.37.05-.71.16-1.04.34l-.33.18c-.06.04-.11.03-.15-.03-.05-.07-.03-.12.03-.17a3.42 3.42 0 0 1 1.4-.55c.17-.02.35-.02.55.02.08 0 .11.05.11.13l-.01.03c-.03.05-.07.07-.13.07-.15-.02-.3-.03-.43-.02ZM13.05 10.68l.3.06c.39.1.75.27 1.09.5.06.03.08.09.05.15l-.01.02c-.05.05-.1.06-.17.02a4.4 4.4 0 0 0-.59-.31 2.6 2.6 0 0 0-.78-.2c-.13-.02-.27-.01-.42 0-.07.02-.12-.01-.13-.09-.01-.07.02-.12.1-.13.18-.04.37-.04.56-.02Z" fill="#291C1E"/><path d="M8.9 11.12c.2 0 .36-.07.36-.16 0-.1-.16-.17-.36-.17-.2 0-.36.08-.36.17 0 .09.16.16.36.16Z" fill="#F6BAD4"/><path d="M8.9 11.15c.05 0 .08.01.1.03.07.06.13.1.2.11.06.02.14.02.22-.02a.64.64 0 0 0 .18-.1c.02-.02.05-.02.09-.01.07.02.1.07.09.14 0 .03-.04.06-.09.1a.71.71 0 0 1-.38.14.6.6 0 0 1-.4-.12H8.9a.6.6 0 0 1-.4.12.71.71 0 0 1-.38-.14c-.05-.04-.08-.07-.08-.1-.02-.07.01-.12.09-.14h.08c.06.05.12.09.18.11.09.04.16.04.23.02a.53.53 0 0 0 .2-.1.14.14 0 0 1 .09-.04Z" fill="#231F20"/><path d="M5.43 11.5c-.42.16-.78.43-1.06.82-.03.04-.08.05-.15.04-.08-.06-.1-.12-.04-.2a2.51 2.51 0 0 1 1.54-.99c.07-.01.12.02.15.1 0 .07-.04.1-.1.13l-.34.1ZM12.72 11.3c.42.16.8.45 1.1.87.05.05.04.11-.01.17-.08.04-.14.03-.18-.02a2.3 2.3 0 0 0-1.07-.82l-.33-.1c-.07-.02-.1-.07-.08-.14.02-.07.06-.1.14-.09.16.03.3.08.43.13Z" fill="#291C1E"/></svg>