<!-- by TradingView --><svg width="18" height="18" viewBox="0 0 18 18" xmlns="http://www.w3.org/2000/svg"><path fill="#13FF7F" d="M0 0h18v18H0z"/><path d="M4 6.58v1.83c0 .33.26.59.58.59h.9C5.8 9 6 8.74 6 8.4V6.86c0-.33.46-.85.78-.85h4.62c.33 0 .6-.28.6-.61v-.8a.6.6 0 0 0-.6-.59H6.54c-.32 0-.54.26-.54.6v.8c0 .33-.3.6-.63.6h-.79a.58.58 0 0 0-.58.58Zm10 4.84V9.59c0-.33-.26-.59-.58-.59h-.82a.6.6 0 0 0-.6.6v1.89c0 .32-.25.51-.57.51H6.6a.62.62 0 0 0-.61.6v.8c0 .34.29.6.61.6h4.85c.32 0 .54-.26.54-.6v-.8c0-.33.3-.6.63-.6h.79c.32 0 .58-.26.58-.58ZM8.55 8c-.3 0-.55.25-.55.55v.9c0 .3.25.55.55.55h.9c.3 0 .55-.25.55-.55v-.9c0-.3-.25-.55-.55-.55h-.9Z" fill="#121212"/></svg>