<!-- by TradingView --><svg width="18" height="18" viewBox="0 0 18 18" xmlns="http://www.w3.org/2000/svg"><path fill="url(#alq2q3ezx)" d="M0 0h18v18H0z"/><path d="M10.85 7.44c-.1 0-.2-.14-.27-.2l-.36-.4a.3.3 0 0 0-.4-.04l-.03.03-.3.35c-.1.12-.25.26-.4.26H4.26c-.13.39-.22.83-.26 1.25h4.57c.08 0 .16-.14.22-.2l.42-.44a.3.3 0 0 1 .21-.09h.02c.08 0 .16.04.21.1l.36.4c.07.08.17.23.27.23H14a5.37 5.37 0 0 0-.26-1.25h-2.9ZM8.8 9.8l-.35-.4a.3.3 0 0 0-.4-.03l-.03.03-.31.35a.51.51 0 0 1-.4.18H4.07c.08.43.22.85.41 1.25h2.28c.08 0 .15-.04.21-.1l.43-.44a.3.3 0 0 1 .2-.1h.03c.08 0 .16.04.2.1l.37.4c.07.09.17.14.26.14h5.06a5 5 0 0 0 .4-1.25H9.08c-.1 0-.2-.05-.27-.13Zm1.75-4.02.43-.31a.3.3 0 0 1 .2-.1h.03c.08 0 .16.04.21.1l.36.27c.07.08.17.13.26.13h.86A4.63 4.63 0 0 0 9.1 4c-1.47 0-3.09.67-4 1.88h5.25c.09.01.16-.04.21-.09ZM7.1 12.44c-.1 0-.2-.07-.27-.14l-.36-.4a.28.28 0 0 0-.4-.02l-.02.02-.3.34a.51.51 0 0 1-.4.18h-.02a5.03 5.03 0 0 0 7.1.22l.23-.2H7.1Z" fill="#fff"/><defs><linearGradient id="alq2q3ezx" x1="3.35" y1="3.12" x2="21.9" y2="24.43" gradientUnits="userSpaceOnUse"><stop stop-color="#1A1E21"/><stop offset="1" stop-color="#06060A"/></linearGradient></defs></svg>