<!-- by TradingView --><svg width="18" height="18" viewBox="0 0 18 18" xmlns="http://www.w3.org/2000/svg"><path fill="url(#a)" d="M0 0h18v18H0z"/><path d="m8.84 9.18-.58-.66-.04-.03-.02-.02H8.14l-.02.01v.02l-.02.01v.05l.01.03.76 1.37.02.04V10.09l-.02.02-.02.02-.02.01H8.8l-.02.01h-.03l-.02-.02-.01-.02-.04-.05-1.04-1.72-.03-.04-.02-.01-.01-.01h-.03l-.03.01-.02.02-.01.02V8.39l.79 2.42.02.06v.05l-.01.02-.01.02-.02.02-.02.01-.02.01h-.06l-.02-.01-.02-.03-.02-.04-1-2.45-.02-.04-.02-.02-.02-.01H7l-.01.01-.01.02-.01.01v.08l.46 2.95.01.06v.05l-.01.02-.02.02-.03.02-.04.02-.05.01h-.05l-.01-.01-.01-.02-.01-.01-.01-.02-.01-.05v-.01l-.54-2.73-.01-.06-.01-.01-.01-.01-.01-.01-.02-.01h-.05l-.01.01-.02.01v.02l-.01.01v.05l.03 3.01v.06l-.01.02v.02l-.02.02-.02.01-.02.01-.03.01-.1.02h-.06l-.02-.01-.02-.01v-.01l-.03-.03v-.03l-.01-.06-.06-2.7V9.1l-.01-.02-.01-.01-.01-.01h-.01l-.03-.01H6L6 9.09l-.02.02v.02l-.01.03-.48 2.69-.01.05-.01.02-.01.02h-.02l-.01.02h-.07l-.15-.03-.14-.03-.03-.02h-.01l-.01-.02-.01-.02-.01-.02v-.1l.93-4.96.02-.08.02-.07.02-.05.03-.04.03-.05.03-.04.04-.04.04-.05.05-.03.05-.03.04-.02.04-.02.04-.01.04-.02h.08l.04-.01h.09l.04.01.04.01.04.02.04.01.04.02.04.02.03.03.03.02.04.04.11.12 2.08 2.33.58.66.04.03.02.02H9.86l.02-.01V9.5l.02-.01v-.05l-.01-.03-.76-1.37L9.11 8V7.91l.02-.02.02-.02.02-.01h.02l.02-.01h.03l.02.02.01.02.04.05 1.04 1.72.03.04.02.01.01.01h.03l.03-.01.02-.02.01-.02V9.61L9.7 7.19l-.02-.06v-.05l.01-.02.01-.02.02-.02.02-.01.02-.01h.06l.02.01.02.03.02.04 1 2.45.02.04.02.02.02.01H11l.01-.01.01-.02.01-.01v-.08l-.46-2.95-.01-.06v-.05l.01-.02.02-.02.03-.02.04-.02.05-.01h.05l.01.01.01.02.01.01.01.02.01.05v.01l.54 2.73.01.06.01.01.01.01.01.01.02.01h.05l.01-.01.02-.01v-.02l.01-.01v-.05l-.03-3.01V6.1l.01-.02v-.02l.02-.02.02-.01.02-.01.03-.01.1-.02h.06l.02.01.02.01v.01l.03.03v.03l.01.06.06 2.7v.04l.01.02.01.01.01.01h.01l.03.01H12l.01-.02.02-.02v-.02l.01-.03.48-2.69.01-.05.01-.02.01-.02h.02l.01-.02h.07l.15.03.14.03.03.02h.01l.01.02.01.02v.02l.01.04v.06l-.93 4.96-.02.08-.02.07-.02.05-.03.04-.03.05-.03.04-.04.04-.04.05-.05.03-.05.04-.04.01-.04.02-.04.01-.04.02h-.08l-.04.01h-.09l-.04-.01-.04-.01-.04-.02-.04-.01-.04-.02-.04-.02-.03-.03-.03-.02-.04-.04-.11-.12-2.08-2.33Z" fill="#E1D8C7"/><defs><linearGradient id="a" x1="3.35" y1="3.12" x2="21.9" y2="24.43" gradientUnits="userSpaceOnUse"><stop stop-color="#1A1E21"/><stop offset="1" stop-color="#06060A"/></linearGradient></defs></svg>