<!-- by TradingView --><svg width="18" height="18" viewBox="0 0 18 18" xmlns="http://www.w3.org/2000/svg"><path fill="url(#a)" d="M0 0h18v18H0z"/><path d="m9 8.85 2.83-1.59L9 3v5.85Z" fill="url(#b)"/><path d="M9 8.85 6.17 7.26 9 3v5.85Z" fill="url(#c)"/><path d="M5.67 7.91A3.84 3.84 0 0 0 5 10.08C5 12.25 6.8 14 9 14s4-1.75 4-3.92c0-.78-.23-1.5-.64-2.12L9 9.84 5.67 7.9Z" fill="url(#d)"/><path d="m6.77 7.33-1.1.59L9 9.88l3.36-1.92-1.15-.63H6.77Z" fill="url(#e)"/><path d="M9 8.85 6.17 7.26 9 5.69v3.16Z" fill="#41C7F0"/><path d="m9 8.85 2.83-1.59L9 5.69v3.16Z" fill="#409EDD"/><path d="M9 8.85 6.53 7.47 9 6.1v2.75Z" fill="url(#f)"/><path d="m9 8.85 2.45-1.38L9 6.1v2.75Z" fill="url(#g)"/><defs><linearGradient id="a" x1="9" y1="0" x2="9" y2="18" gradientUnits="userSpaceOnUse"><stop stop-color="#E97877"/><stop offset="1" stop-color="#EFD1AE"/></linearGradient><linearGradient id="b" x1="10.42" y1="3" x2="11.23" y2="7.15" gradientUnits="userSpaceOnUse"><stop stop-color="#3863B2"/><stop offset="1" stop-color="#83A2CC"/></linearGradient><linearGradient id="c" x1="7.58" y1="3" x2="6.77" y2="7.15" gradientUnits="userSpaceOnUse"><stop stop-color="#5EC6EB"/><stop offset="1" stop-color="#83C6DF"/></linearGradient><linearGradient id="d" x1="9" y1="7.91" x2="9" y2="14" gradientUnits="userSpaceOnUse"><stop offset=".22" stop-color="#4F83C1"/><stop offset=".45" stop-color="#51B3E5"/><stop offset="1" stop-color="#BAD2D3"/></linearGradient><linearGradient id="e" x1="4.96" y1="7.82" x2="12.45" y2="7.82" gradientUnits="userSpaceOnUse"><stop offset=".12" stop-color="#79C3E0"/><stop offset=".53" stop-color="#93E3FC"/><stop offset="1" stop-color="#76C3DE"/></linearGradient><linearGradient id="f" x1="6.7" y1="7.72" x2="8.91" y2="7.63" gradientUnits="userSpaceOnUse"><stop stop-color="#34C2F3"/><stop offset="1" stop-color="#61DAFA"/></linearGradient><linearGradient id="g" x1="9.5" y1="8.64" x2="9.62" y2="6.74" gradientUnits="userSpaceOnUse"><stop stop-color="#25D2FD"/><stop offset=".49" stop-color="#61C2F2"/><stop offset="1" stop-color="#31A2E5"/></linearGradient></defs></svg>