<svg xmlns="http://www.w3.org/2000/svg" xmlns:xlink="http://www.w3.org/1999/xlink" data-name="Layer 2" viewBox="0 0 64 64"><defs><linearGradient id="c" x1="32" x2="32" y1="4" y2="32" gradientUnits="userSpaceOnUse"><stop offset="0" stop-color="#ffc033"/><stop offset="1" stop-color="#ef8e2e"/></linearGradient><linearGradient id="a" x1="11" x2="11" y1="54" y2="32" gradientUnits="userSpaceOnUse"><stop offset="0" stop-color="#009e77"/><stop offset="1" stop-color="#00d291"/></linearGradient><linearGradient id="d" x1="39" x2="39" y1="55" y2="33" xlink:href="#a"/><linearGradient id="b" x1="25" x2="25" y1="39" y2="61" gradientUnits="userSpaceOnUse"><stop offset="0" stop-color="#ff4d6c"/><stop offset="1" stop-color="#ff0825"/></linearGradient><linearGradient id="e" x1="53" x2="53" xlink:href="#b"/></defs><circle cx="32" cy="18" r="14" fill="url(#c)"/><path fill="#b2500d" d="M33.29,17H33V13h.29a2,2,0,0,1,2,2h2a4,4,0,0,0-4-4H33V8.57H31V11h-.29a4,4,0,0,0,0,8H31v4h-.29a2,2,0,0,1-2-2h-2a4,4,0,0,0,4,4H31v2.43h2V25h.29a4,4,0,0,0,0-8Zm-2.58,0a2,2,0,0,1,0-4H31v4Zm2.58,6H33V19h.29a2,2,0,0,1,0,4Z"/><path fill="url(#a)" d="M16,37H12V32H10v5H6a1,1,0,0,0-1,1V48a1,1,0,0,0,1,1h4v5h2V49h4a1,1,0,0,0,1-1V38A1,1,0,0,0,16,37Z"/><path fill="url(#d)" d="M44,38H40V33H38v5H34a1,1,0,0,0-1,1V49a1,1,0,0,0,1,1h4v5h2V50h4a1,1,0,0,0,1-1V39A1,1,0,0,0,44,38Z"/><path fill="url(#b)" d="M30,44H26V39H24v5H20a1,1,0,0,0-1,1V55a1,1,0,0,0,1,1h4v5h2V56h4a1,1,0,0,0,1-1V45A1,1,0,0,0,30,44Z"/><path fill="url(#e)" d="M58,44H54V39H52v5H48a1,1,0,0,0-1,1V55a1,1,0,0,0,1,1h4v5h2V56h4a1,1,0,0,0,1-1V45A1,1,0,0,0,58,44Z"/></svg>